<svg xmlns="http://www.w3.org/2000/svg" width="1050" height="680" viewBox="0 0 1050 680" role="img" aria-labelledby="title description"><title id="title">Trois propositions de logo pour Eodia Insights</title><desc id="description">Monogramme : un E modulaire. Focus : une ouverture circulaire avec un point menthe. Facettes : un cube en trois plans. Chaque proposition est présentée sur fond clair, sur fond sombre et à petite taille.</desc><rect width="1050" height="680" fill="#fafaf7"/><rect y="478" width="1050" height="202" fill="#15231b"/><g font-family="Segoe UI, Arial, sans-serif"><text x="42" y="51" font-size="26" font-weight="600" letter-spacing="-.8" fill="#183026">eodia insights</text><text x="1008" y="49" text-anchor="end" font-size="13" fill="#607067">Trois directions de logo</text><text x="42" y="116" font-size="13" font-weight="600" letter-spacing="1.8" fill="#728378">01</text><svg x="109" y="142" xmlns="http://www.w3.org/2000/svg" width="136" height="136" viewBox="0 0 64 64" fill="none">
  
  <rect width="64" height="64" rx="16" fill="#104832"/>
  <path d="M15 14h10v28h22v9H22a7 7 0 0 1-7-7V14Z" fill="#dcf3bd"/>
  <rect x="22" y="28" width="21" height="9" rx="4.5" fill="#dcf3bd"/>
  <rect x="31" y="14" width="17" height="9" rx="4.5" fill="#76cf98"/>
</svg>
<text x="42" y="326" font-size="25" font-weight="600" letter-spacing="-.7" fill="#183026">Monogramme</text><text x="42" y="356" font-size="14" fill="#607067">Un E modulaire, franc et compact.</text><svg x="42" y="395" xmlns="http://www.w3.org/2000/svg" width="32" height="32" viewBox="0 0 64 64" fill="none">
  
  <rect width="64" height="64" rx="16" fill="#104832"/>
  <path d="M15 14h10v28h22v9H22a7 7 0 0 1-7-7V14Z" fill="#dcf3bd"/>
  <rect x="22" y="28" width="21" height="9" rx="4.5" fill="#dcf3bd"/>
  <rect x="31" y="14" width="17" height="9" rx="4.5" fill="#76cf98"/>
</svg>
<text x="85" y="418" font-size="20" font-weight="600" letter-spacing="-.5" fill="#183026">eodia insights</text><svg x="132" y="506" xmlns="http://www.w3.org/2000/svg" width="88" height="88" viewBox="0 0 64 64" fill="none">
  
  <rect width="64" height="64" rx="16" fill="#104832"/>
  <path d="M15 14h10v28h22v9H22a7 7 0 0 1-7-7V14Z" fill="#dcf3bd"/>
  <rect x="22" y="28" width="21" height="9" rx="4.5" fill="#dcf3bd"/>
  <rect x="31" y="14" width="17" height="9" rx="4.5" fill="#76cf98"/>
</svg>
<text x="42" y="633" font-size="14" fill="#a2b3a6">En petit</text><svg x="134" y="611" xmlns="http://www.w3.org/2000/svg" width="32" height="32" viewBox="0 0 64 64" fill="none">
  
  <rect width="64" height="64" rx="16" fill="#104832"/>
  <path d="M15 14h10v28h22v9H22a7 7 0 0 1-7-7V14Z" fill="#dcf3bd"/>
  <rect x="22" y="28" width="21" height="9" rx="4.5" fill="#dcf3bd"/>
  <rect x="31" y="14" width="17" height="9" rx="4.5" fill="#76cf98"/>
</svg>
<svg x="185" y="619" xmlns="http://www.w3.org/2000/svg" width="16" height="16" viewBox="0 0 64 64" fill="none">
  
  <rect width="64" height="64" rx="16" fill="#104832"/>
  <path d="M15 14h10v28h22v9H22a7 7 0 0 1-7-7V14Z" fill="#dcf3bd"/>
  <rect x="22" y="28" width="21" height="9" rx="4.5" fill="#dcf3bd"/>
  <rect x="31" y="14" width="17" height="9" rx="4.5" fill="#76cf98"/>
</svg>
<text x="364" y="116" font-size="13" font-weight="600" letter-spacing="1.8" fill="#728378">02</text><svg x="431" y="142" xmlns="http://www.w3.org/2000/svg" width="136" height="136" viewBox="0 0 64 64" fill="none">
  
  <rect width="64" height="64" rx="16" fill="#104832"/>
  <path d="M32 15a17 17 0 1 0 17 17" stroke="#dcf3bd" stroke-width="9" stroke-linecap="round"/>
  <rect x="27" y="27" width="10" height="10" rx="3" fill="#dcf3bd"/>
  <circle cx="46" cy="18" r="5" fill="#76cf98"/>
</svg>
<text x="364" y="326" font-size="25" font-weight="600" letter-spacing="-.7" fill="#183026">Focus</text><text x="364" y="356" font-size="14" fill="#607067">Une ouverture et un point de repère.</text><svg x="364" y="395" xmlns="http://www.w3.org/2000/svg" width="32" height="32" viewBox="0 0 64 64" fill="none">
  
  <rect width="64" height="64" rx="16" fill="#104832"/>
  <path d="M32 15a17 17 0 1 0 17 17" stroke="#dcf3bd" stroke-width="9" stroke-linecap="round"/>
  <rect x="27" y="27" width="10" height="10" rx="3" fill="#dcf3bd"/>
  <circle cx="46" cy="18" r="5" fill="#76cf98"/>
</svg>
<text x="407" y="418" font-size="20" font-weight="600" letter-spacing="-.5" fill="#183026">eodia insights</text><svg x="454" y="506" xmlns="http://www.w3.org/2000/svg" width="88" height="88" viewBox="0 0 64 64" fill="none">
  
  <rect width="64" height="64" rx="16" fill="#104832"/>
  <path d="M32 15a17 17 0 1 0 17 17" stroke="#dcf3bd" stroke-width="9" stroke-linecap="round"/>
  <rect x="27" y="27" width="10" height="10" rx="3" fill="#dcf3bd"/>
  <circle cx="46" cy="18" r="5" fill="#76cf98"/>
</svg>
<text x="364" y="633" font-size="14" fill="#a2b3a6">En petit</text><svg x="456" y="611" xmlns="http://www.w3.org/2000/svg" width="32" height="32" viewBox="0 0 64 64" fill="none">
  
  <rect width="64" height="64" rx="16" fill="#104832"/>
  <path d="M32 15a17 17 0 1 0 17 17" stroke="#dcf3bd" stroke-width="9" stroke-linecap="round"/>
  <rect x="27" y="27" width="10" height="10" rx="3" fill="#dcf3bd"/>
  <circle cx="46" cy="18" r="5" fill="#76cf98"/>
</svg>
<svg x="507" y="619" xmlns="http://www.w3.org/2000/svg" width="16" height="16" viewBox="0 0 64 64" fill="none">
  
  <rect width="64" height="64" rx="16" fill="#104832"/>
  <path d="M32 15a17 17 0 1 0 17 17" stroke="#dcf3bd" stroke-width="9" stroke-linecap="round"/>
  <rect x="27" y="27" width="10" height="10" rx="3" fill="#dcf3bd"/>
  <circle cx="46" cy="18" r="5" fill="#76cf98"/>
</svg>
<text x="686" y="116" font-size="13" font-weight="600" letter-spacing="1.8" fill="#728378">03</text><svg x="753" y="142" xmlns="http://www.w3.org/2000/svg" width="136" height="136" viewBox="0 0 64 64" fill="none">
  
  <rect width="64" height="64" rx="16" fill="#104832"/>
  <path d="m30 12-16 9 18 10 18-10-16-9a4 4 0 0 0-4 0Z" fill="#76cf98"/>
  <path d="m14 27 14 8v17l-12-7a4 4 0 0 1-2-3V27Zm22 8 14-8v15a4 4 0 0 1-2 3l-12 7V35Z" fill="#dcf3bd"/>
</svg>
<text x="686" y="326" font-size="25" font-weight="600" letter-spacing="-.7" fill="#183026">Facettes</text><text x="686" y="356" font-size="14" fill="#607067">Trois plans, une forme en volume.</text><svg x="686" y="395" xmlns="http://www.w3.org/2000/svg" width="32" height="32" viewBox="0 0 64 64" fill="none">
  
  <rect width="64" height="64" rx="16" fill="#104832"/>
  <path d="m30 12-16 9 18 10 18-10-16-9a4 4 0 0 0-4 0Z" fill="#76cf98"/>
  <path d="m14 27 14 8v17l-12-7a4 4 0 0 1-2-3V27Zm22 8 14-8v15a4 4 0 0 1-2 3l-12 7V35Z" fill="#dcf3bd"/>
</svg>
<text x="729" y="418" font-size="20" font-weight="600" letter-spacing="-.5" fill="#183026">eodia insights</text><svg x="776" y="506" xmlns="http://www.w3.org/2000/svg" width="88" height="88" viewBox="0 0 64 64" fill="none">
  
  <rect width="64" height="64" rx="16" fill="#104832"/>
  <path d="m30 12-16 9 18 10 18-10-16-9a4 4 0 0 0-4 0Z" fill="#76cf98"/>
  <path d="m14 27 14 8v17l-12-7a4 4 0 0 1-2-3V27Zm22 8 14-8v15a4 4 0 0 1-2 3l-12 7V35Z" fill="#dcf3bd"/>
</svg>
<text x="686" y="633" font-size="14" fill="#a2b3a6">En petit</text><svg x="778" y="611" xmlns="http://www.w3.org/2000/svg" width="32" height="32" viewBox="0 0 64 64" fill="none">
  
  <rect width="64" height="64" rx="16" fill="#104832"/>
  <path d="m30 12-16 9 18 10 18-10-16-9a4 4 0 0 0-4 0Z" fill="#76cf98"/>
  <path d="m14 27 14 8v17l-12-7a4 4 0 0 1-2-3V27Zm22 8 14-8v15a4 4 0 0 1-2 3l-12 7V35Z" fill="#dcf3bd"/>
</svg>
<svg x="829" y="619" xmlns="http://www.w3.org/2000/svg" width="16" height="16" viewBox="0 0 64 64" fill="none">
  
  <rect width="64" height="64" rx="16" fill="#104832"/>
  <path d="m30 12-16 9 18 10 18-10-16-9a4 4 0 0 0-4 0Z" fill="#76cf98"/>
  <path d="m14 27 14 8v17l-12-7a4 4 0 0 1-2-3V27Zm22 8 14-8v15a4 4 0 0 1-2 3l-12 7V35Z" fill="#dcf3bd"/>
</svg>
</g></svg>